<?xml version="1.0" encoding="UTF-8" standalone="no"?>
<svg width="60px" height="47px" viewBox="0 0 60 47" version="1.1" xmlns="http://www.w3.org/2000/svg" xmlns:xlink="http://www.w3.org/1999/xlink">
    <!-- Generator: Sketch 42 (36781) - http://www.bohemiancoding.com/sketch -->
    <title>Logo</title>
    <desc>Created with Sketch.</desc>
    <defs></defs>
    <g id="-" stroke="none" stroke-width="1" fill="none" fill-rule="evenodd">
        <g id="Menu-Closed" transform="translate(-13.000000, -26.000000)" fill="#FFFFFF">
            <g id="Logo" transform="translate(13.000000, 25.000000)">
                <g id="Group">
                    <g id="STI-Logo">
                        <path d="M11.4300906,19.1249606 C17.2059719,19.1249606 23.0339984,21.4157562 23.0339984,24.904284 C23.0339984,26.6739905 21.8372348,28.2362919 19.8595812,28.2362919 C16.8937447,28.2362919 16.7897763,24.7480861 12.002078,24.7480861 C9.34846864,24.7480861 7.63121904,25.4765804 7.63121904,27.090733 C7.63121904,28.8610836 9.34846864,29.277182 11.6898508,29.7982712 L14.8642679,30.5270875 C19.1833036,31.5164484 24.3347305,33.3383282 24.3347305,38.6487358 C24.3347305,44.8448018 18.3505904,47.7082158 12.6265324,47.7082158 C5.75817772,47.7082158 0.0337977897,44.6364305 0.0337977897,40.8880022 C0.0337977897,39.2216763 0.970479391,37.7118703 3.10424652,37.7118703 C6.38263212,37.7118703 6.69453744,42.3978082 12.3143052,42.3978082 C15.0203815,42.3978082 16.7376311,41.200076 16.7376311,39.6384188 C16.7376311,37.7118703 15.0725267,37.3997965 12.3664503,36.7228314 L7.89130108,35.6294459 C3.46829699,34.5357383 0.0337977897,32.7141806 0.0337977897,27.6115001 C0.0337977897,21.4157562 6.17437336,19.1249606 11.4300906,19.1249606" id="Fill-1"></path>
                        <path d="M30.4753061,24.8002594 L29.174574,24.8002594 C27.0411287,24.8002594 26.1562704,23.9670964 26.1562704,22.3010925 C26.1562704,20.6347666 27.0411287,19.8016036 29.174574,19.8016036 L30.4753061,19.8016036 L30.4753061,15.167839 C30.4753061,12.6689941 31.9846188,11.3675594 34.2738557,11.3675594 C36.5637365,11.3675594 38.0727273,12.6689941 38.0727273,15.167839 L38.0727273,19.8016036 L40.3622861,19.8016036 C42.5996998,19.8016036 43.7967853,20.4785686 43.7967853,22.3010925 C43.7967853,24.1229723 42.5996998,24.8002594 40.3622861,24.8002594 L38.0727273,24.8002594 L38.0727273,40.0026659 C38.0727273,41.1482248 38.6971817,41.7730165 40.0500589,41.7730165 L41.1428541,41.7730165 C42.8079586,41.7730165 43.7967853,42.7102041 43.7967853,44.3240347 C43.7967853,46.5108057 41.9234221,47.7082158 38.2806642,47.7082158 C32.7651868,47.7082158 30.4753061,45.4177422 30.4753061,40.9398535 L30.4753061,24.8002594 L36.1320338,0.439635051" id="Fill-2"></path>
                        <path d="M48.1679661,22.9258843 C48.1679661,20.8953112 49.0006793,19.1249606 51.9668377,19.1249606 C54.9326742,19.1249606 55.7653874,20.8953112 55.7653874,22.9258843 L55.7653874,43.9072921 C55.7653874,45.9378653 54.9326742,47.7082158 51.9668377,47.7082158 C49.0006793,47.7082158 48.1679661,45.9378653 48.1679661,43.9072921 L48.1679661,22.9258843" id="Fill-3"></path>
                        <path d="M54.4199135,14.731773 C54.158222,14.731773 53.9129466,14.5701001 53.8183128,14.3098776 C53.6972845,13.9775141 53.8688486,13.6100464 54.2010326,13.4892748 C55.694573,12.9456416 56.8881178,11.851612 57.5614985,10.409116 C58.2339136,8.96597596 58.3040842,7.34860274 57.7591351,5.85489964 C57.2164392,4.35797596 56.1233221,3.16410847 54.6822487,2.49229634 C54.3619744,2.34318367 54.2229206,1.96218954 54.3722747,1.64174224 C54.5213068,1.32097288 54.9020953,1.181844 55.2226915,1.33160078 C56.9747045,2.14769472 58.3027967,3.59856416 58.9623364,5.41690131 C59.6244512,7.23105172 59.5388301,9.19656919 58.7215674,10.9504948 C57.9036609,12.7034543 56.4535748,14.0322639 54.6384725,14.692804 C54.5663706,14.7192127 54.4923373,14.731773 54.4199135,14.731773" id="Fill-4"></path>
                        <path d="M56.4490684,7.33088957 C56.1876988,7.33088957 55.9421016,7.16921666 55.8474677,6.90899413 C55.3044499,5.4140028 54.2116547,4.22045737 52.7702595,3.54800112 C51.3298298,2.87554487 49.713008,2.80404808 48.21818,3.34800335 C46.7236739,3.89195862 45.5301291,4.98663237 44.8573922,6.42977244 C44.7080381,6.74957562 44.3272497,6.8887045 44.0063316,6.73926978 C43.6860573,6.589513 43.5476474,6.20851887 43.6970014,5.88807157 C44.514586,4.13511211 45.9646721,2.80533632 47.7804182,2.14415208 C49.5964861,1.48296785 51.5609424,1.5699234 53.3116679,2.38730556 C55.0627153,3.20404361 56.3904856,4.654591 57.0506691,6.47163992 C57.1713754,6.80400335 57.0001333,7.17114901 56.6679493,7.29224266 C56.5955255,7.31832933 56.5214922,7.33088957 56.4490684,7.33088957" id="Fill-5"></path>
                        <path d="M48.5204288,17.4802125 C48.4296576,17.4802125 48.3375989,17.460889 48.2500465,17.4199877 C46.4983553,16.6009952 45.1709069,15.1504479 44.512011,13.3350092 C43.8495743,11.5192485 43.9351953,9.55373106 44.7534237,7.80109365 C45.5687552,6.05006654 47.0188413,4.7206128 48.8352311,4.0584624 C49.1658057,3.93865698 49.5346844,4.10870338 49.6557127,4.44138887 C49.7764191,4.77343025 49.6054988,5.14089796 49.2729929,5.26231367 C47.7778431,5.80691306 46.5849421,6.90094269 45.9131707,8.34247246 C45.2401119,9.78496841 45.1696194,11.4023416 45.7152123,12.8970109 C46.2572644,14.3916802 47.3500596,15.5855477 48.7917768,16.2596142 C49.1120511,16.4090489 49.2504611,16.7903651 49.1007851,17.1108124 C48.9923103,17.3436601 48.7611978,17.4802125 48.5204288,17.4802125" id="Fill-6"></path>
                        <path d="M53.2170341,17.0464009 C52.1747746,17.0464009 51.1363777,16.81774 50.1633233,16.3636388 C48.4122759,15.5465787 47.0835399,14.0960313 46.4233564,12.2789824 C46.3023282,11.946941 46.4738922,11.5794733 46.8060762,11.4583796 C47.1376164,11.337286 47.5055295,11.5089427 47.6262359,11.8416282 C48.1698975,13.3366195 49.2633364,14.530487 50.7044098,15.2026212 C52.1458051,15.8757216 53.7629488,15.9468963 55.2561674,15.4019748 C56.7509953,14.8583416 57.9438964,13.7646341 58.6163114,12.3221381 C58.7656655,12.0013687 59.1458101,11.863206 59.4670501,12.0123187 C59.7870025,12.1617534 59.9257344,12.5427476 59.7763803,12.8635169 C58.9597614,14.6158323 57.5099971,15.9449639 55.6942511,16.6058261 C54.8876105,16.8998647 54.0510347,17.0464009 53.2170341,17.0464009" id="Fill-7"></path>
                    </g>
                </g>
            </g>
        </g>
    </g>
</svg>